<mxfile host="Electron" agent="Mozilla/5.0 (X11; Linux x86_64) AppleWebKit/537.36 (KHTML, like Gecko) draw.io/27.0.5 Chrome/134.0.6998.205 Electron/35.3.0 Safari/537.36" version="27.0.5" pages="5">
  <diagram id="O48PNkfvRvmSjr1T7r3z" name="manylinux">
    <mxGraphModel dx="2231" dy="1061" grid="1" gridSize="10" guides="1" tooltips="1" connect="1" arrows="1" fold="1" page="1" pageScale="1" pageWidth="827" pageHeight="1169" math="0" shadow="0">
      <root>
        <mxCell id="0" />
        <mxCell id="1" parent="0" />
        <mxCell id="CWzqWhJCWG_4Mf81_h5I-9" style="edgeStyle=orthogonalEdgeStyle;rounded=0;orthogonalLoop=1;jettySize=auto;html=1;exitX=0.5;exitY=1;exitDx=0;exitDy=0;entryX=0.5;entryY=0;entryDx=0;entryDy=0;fontSize=20;fontColor=default;fontFamily=Times New Roman;" parent="1" source="CWzqWhJCWG_4Mf81_h5I-2" target="CWzqWhJCWG_4Mf81_h5I-6" edge="1">
          <mxGeometry relative="1" as="geometry" />
        </mxCell>
        <mxCell id="CWzqWhJCWG_4Mf81_h5I-2" value="&lt;font&gt;manylinux-lvl1-base&lt;/font&gt;&lt;div&gt;&lt;font&gt;(ubuntu:18.04)&lt;/font&gt;&lt;/div&gt;" style="rounded=0;whiteSpace=wrap;html=1;fontSize=20;gradientColor=none;fillColor=default;strokeColor=default;fontFamily=Times New Roman;" parent="1" vertex="1">
          <mxGeometry x="900" y="40" width="240" height="80" as="geometry" />
        </mxCell>
        <mxCell id="CWzqWhJCWG_4Mf81_h5I-10" style="edgeStyle=orthogonalEdgeStyle;rounded=0;orthogonalLoop=1;jettySize=auto;html=1;exitX=0.5;exitY=1;exitDx=0;exitDy=0;entryX=0.5;entryY=0;entryDx=0;entryDy=0;fontSize=20;fontColor=default;fontFamily=Times New Roman;" parent="1" source="CWzqWhJCWG_4Mf81_h5I-6" target="CWzqWhJCWG_4Mf81_h5I-7" edge="1">
          <mxGeometry relative="1" as="geometry" />
        </mxCell>
        <mxCell id="CWzqWhJCWG_4Mf81_h5I-6" value="&lt;font&gt;manylinux-lvl2-gnu-gcc-clang&lt;/font&gt;" style="rounded=0;whiteSpace=wrap;html=1;strokeColor=default;fontSize=20;fontColor=default;fontFamily=Times New Roman;" parent="1" vertex="1">
          <mxGeometry x="60" y="160" width="320" height="80" as="geometry" />
        </mxCell>
        <mxCell id="CWzqWhJCWG_4Mf81_h5I-7" value="&lt;font&gt;manylinux-&lt;span&gt;lvl3&lt;/span&gt;-&lt;span&gt;cp3xx-manylinux_2_17_x86_64&lt;/span&gt;&lt;br&gt;(One for each Python version)&lt;/font&gt;" style="rounded=0;whiteSpace=wrap;html=1;strokeColor=default;fontSize=20;fontColor=default;fontFamily=Times New Roman;" parent="1" vertex="1">
          <mxGeometry x="40" y="280" width="360" height="80" as="geometry" />
        </mxCell>
        <mxCell id="2" value="&lt;font&gt;manylinux-lvl2-gcc-aarch64-linux-gnu&lt;/font&gt;" style="rounded=0;whiteSpace=wrap;html=1;strokeColor=default;fontSize=20;fontColor=default;fontFamily=Times New Roman;" parent="1" vertex="1">
          <mxGeometry x="460" y="160" width="320" height="80" as="geometry" />
        </mxCell>
        <mxCell id="3" style="edgeStyle=orthogonalEdgeStyle;rounded=0;orthogonalLoop=1;jettySize=auto;html=1;exitX=0.5;exitY=1;exitDx=0;exitDy=0;entryX=0.5;entryY=0;entryDx=0;entryDy=0;fontSize=20;fontColor=default;fontFamily=Times New Roman;" parent="1" source="CWzqWhJCWG_4Mf81_h5I-2" target="2" edge="1">
          <mxGeometry relative="1" as="geometry">
            <mxPoint x="296" y="150" as="sourcePoint" />
            <mxPoint x="199" y="210" as="targetPoint" />
          </mxGeometry>
        </mxCell>
        <mxCell id="4" value="&lt;font&gt;manylinux-&lt;span&gt;lvl3&lt;/span&gt;-&lt;span&gt;cp3xx-manylinux_2_17_aarch64&lt;/span&gt;&lt;/font&gt;&lt;div&gt;&lt;font&gt;(One for each Python version)&lt;/font&gt;&lt;/div&gt;" style="rounded=0;whiteSpace=wrap;html=1;strokeColor=default;fontSize=20;fontColor=default;fontFamily=Times New Roman;" parent="1" vertex="1">
          <mxGeometry x="440" y="280" width="360" height="80" as="geometry" />
        </mxCell>
        <mxCell id="5" style="edgeStyle=orthogonalEdgeStyle;rounded=0;orthogonalLoop=1;jettySize=auto;html=1;exitX=0.5;exitY=1;exitDx=0;exitDy=0;entryX=0.5;entryY=0;entryDx=0;entryDy=0;fontSize=20;fontColor=default;fontFamily=Times New Roman;" parent="1" source="2" target="4" edge="1">
          <mxGeometry relative="1" as="geometry">
            <mxPoint x="369.45000000000005" y="220" as="sourcePoint" />
          </mxGeometry>
        </mxCell>
        <mxCell id="MhCYwJpNVsJGQ6wL9FGL-5" value="&lt;font&gt;manylinux-lvl2-gcc-arm-linux-gnueabihf&lt;/font&gt;" style="rounded=0;whiteSpace=wrap;html=1;strokeColor=default;fontSize=20;fontColor=default;fontFamily=Times New Roman;" parent="1" vertex="1">
          <mxGeometry x="860" y="160" width="320" height="80" as="geometry" />
        </mxCell>
        <mxCell id="MhCYwJpNVsJGQ6wL9FGL-6" style="edgeStyle=orthogonalEdgeStyle;rounded=0;orthogonalLoop=1;jettySize=auto;html=1;exitX=0.5;exitY=1;exitDx=0;exitDy=0;entryX=0.5;entryY=0;entryDx=0;entryDy=0;fontSize=20;fontColor=default;fontFamily=Times New Roman;" parent="1" source="CWzqWhJCWG_4Mf81_h5I-2" target="MhCYwJpNVsJGQ6wL9FGL-5" edge="1">
          <mxGeometry relative="1" as="geometry">
            <mxPoint x="900" y="120" as="sourcePoint" />
            <mxPoint x="639" y="210" as="targetPoint" />
          </mxGeometry>
        </mxCell>
        <mxCell id="MhCYwJpNVsJGQ6wL9FGL-7" value="&lt;font&gt;manylinux-&lt;span&gt;lvl3&lt;/span&gt;-&lt;span&gt;cp3xx-manylinux_2_17&lt;/span&gt;&lt;/font&gt;_armv7l&lt;div&gt;&lt;font&gt;(One for each Python version)&lt;/font&gt;&lt;/div&gt;" style="rounded=0;whiteSpace=wrap;html=1;strokeColor=default;fontSize=20;fontColor=default;fontFamily=Times New Roman;" parent="1" vertex="1">
          <mxGeometry x="840" y="280" width="360" height="80" as="geometry" />
        </mxCell>
        <mxCell id="MhCYwJpNVsJGQ6wL9FGL-8" style="edgeStyle=orthogonalEdgeStyle;rounded=0;orthogonalLoop=1;jettySize=auto;html=1;exitX=0.5;exitY=1;exitDx=0;exitDy=0;entryX=0.5;entryY=0;entryDx=0;entryDy=0;fontSize=20;fontColor=default;fontFamily=Times New Roman;" parent="1" source="MhCYwJpNVsJGQ6wL9FGL-5" target="MhCYwJpNVsJGQ6wL9FGL-7" edge="1">
          <mxGeometry relative="1" as="geometry">
            <mxPoint x="809.45" y="220" as="sourcePoint" />
          </mxGeometry>
        </mxCell>
        <mxCell id="mIZoC-N-fGtUZ1sFCeYV-5" value="&lt;font&gt;manylinux-lvl2-gcc-powerpc64le-linux-gnu&lt;/font&gt;" style="rounded=0;whiteSpace=wrap;html=1;strokeColor=default;fontSize=20;fontColor=default;fontFamily=Times New Roman;" parent="1" vertex="1">
          <mxGeometry x="1261.5" y="160" width="319" height="80" as="geometry" />
        </mxCell>
        <mxCell id="mIZoC-N-fGtUZ1sFCeYV-6" value="&lt;font&gt;manylinux-&lt;span&gt;lvl3&lt;/span&gt;-&lt;span&gt;cp3xx-manylinux_2_17&lt;/span&gt;&lt;/font&gt;_ppc64le&lt;div&gt;&lt;font&gt;(One for each Python version)&lt;/font&gt;&lt;/div&gt;" style="rounded=0;whiteSpace=wrap;html=1;strokeColor=default;fontSize=20;fontColor=default;fontFamily=Times New Roman;" parent="1" vertex="1">
          <mxGeometry x="1241" y="280" width="360" height="80" as="geometry" />
        </mxCell>
        <mxCell id="mIZoC-N-fGtUZ1sFCeYV-7" style="edgeStyle=orthogonalEdgeStyle;rounded=0;orthogonalLoop=1;jettySize=auto;html=1;exitX=0.5;exitY=1;exitDx=0;exitDy=0;entryX=0.5;entryY=0;entryDx=0;entryDy=0;fontSize=20;fontColor=default;fontFamily=Times New Roman;" parent="1" source="mIZoC-N-fGtUZ1sFCeYV-5" target="mIZoC-N-fGtUZ1sFCeYV-6" edge="1">
          <mxGeometry relative="1" as="geometry">
            <mxPoint x="1249.45" y="220" as="sourcePoint" />
          </mxGeometry>
        </mxCell>
        <mxCell id="mIZoC-N-fGtUZ1sFCeYV-8" style="edgeStyle=orthogonalEdgeStyle;rounded=0;orthogonalLoop=1;jettySize=auto;html=1;exitX=0.5;exitY=1;exitDx=0;exitDy=0;entryX=0.5;entryY=0;entryDx=0;entryDy=0;fontSize=20;fontColor=default;fontFamily=Times New Roman;" parent="1" source="CWzqWhJCWG_4Mf81_h5I-2" target="mIZoC-N-fGtUZ1sFCeYV-5" edge="1">
          <mxGeometry relative="1" as="geometry">
            <mxPoint x="1230" y="110" as="sourcePoint" />
            <mxPoint x="1450" y="150" as="targetPoint" />
          </mxGeometry>
        </mxCell>
        <mxCell id="8NvU9L8PkYmUR9Lxndc6-5" value="&lt;font&gt;manylinux-lvl2-gcc-s390x-linux-gnu&lt;/font&gt;" style="rounded=0;whiteSpace=wrap;html=1;strokeColor=default;fontSize=20;fontColor=default;fontFamily=Times New Roman;" parent="1" vertex="1">
          <mxGeometry x="1660.5" y="160" width="319" height="80" as="geometry" />
        </mxCell>
        <mxCell id="8NvU9L8PkYmUR9Lxndc6-6" value="&lt;font&gt;manylinux-&lt;span&gt;lvl3&lt;/span&gt;-&lt;span&gt;cp3xx-manylinux_2_17&lt;/span&gt;&lt;/font&gt;_s390x&lt;div&gt;&lt;font&gt;(One for each Python version)&lt;/font&gt;&lt;/div&gt;" style="rounded=0;whiteSpace=wrap;html=1;strokeColor=default;fontSize=20;fontColor=default;fontFamily=Times New Roman;" parent="1" vertex="1">
          <mxGeometry x="1640" y="280" width="360" height="80" as="geometry" />
        </mxCell>
        <mxCell id="8NvU9L8PkYmUR9Lxndc6-7" style="edgeStyle=orthogonalEdgeStyle;rounded=0;orthogonalLoop=1;jettySize=auto;html=1;exitX=0.5;exitY=1;exitDx=0;exitDy=0;entryX=0.5;entryY=0;entryDx=0;entryDy=0;fontSize=20;fontColor=default;fontFamily=Times New Roman;" parent="1" source="8NvU9L8PkYmUR9Lxndc6-5" target="8NvU9L8PkYmUR9Lxndc6-6" edge="1">
          <mxGeometry relative="1" as="geometry">
            <mxPoint x="1648.45" y="220" as="sourcePoint" />
          </mxGeometry>
        </mxCell>
        <mxCell id="8NvU9L8PkYmUR9Lxndc6-8" style="edgeStyle=orthogonalEdgeStyle;rounded=0;orthogonalLoop=1;jettySize=auto;html=1;exitX=0.5;exitY=1;exitDx=0;exitDy=0;entryX=0.5;entryY=0;entryDx=0;entryDy=0;fontSize=20;fontColor=default;fontFamily=Times New Roman;" parent="1" source="CWzqWhJCWG_4Mf81_h5I-2" target="8NvU9L8PkYmUR9Lxndc6-5" edge="1">
          <mxGeometry relative="1" as="geometry">
            <mxPoint x="1330" y="80" as="sourcePoint" />
            <mxPoint x="1931" y="120" as="targetPoint" />
          </mxGeometry>
        </mxCell>
      </root>
    </mxGraphModel>
  </diagram>
  <diagram name="manylinux-part1" id="Did13FDV1qydkBjjkvy9">
    <mxGraphModel dx="1896" dy="902" grid="1" gridSize="10" guides="1" tooltips="1" connect="1" arrows="1" fold="1" page="1" pageScale="1" pageWidth="827" pageHeight="1169" math="0" shadow="0">
      <root>
        <mxCell id="wd3FYFt02pDFn2Ap9oAw-0" />
        <mxCell id="wd3FYFt02pDFn2Ap9oAw-1" parent="wd3FYFt02pDFn2Ap9oAw-0" />
        <mxCell id="wd3FYFt02pDFn2Ap9oAw-2" style="edgeStyle=orthogonalEdgeStyle;rounded=0;orthogonalLoop=1;jettySize=auto;html=1;exitX=0.5;exitY=1;exitDx=0;exitDy=0;entryX=0.5;entryY=0;entryDx=0;entryDy=0;fontSize=20;fontColor=default;fontFamily=Times New Roman;" parent="wd3FYFt02pDFn2Ap9oAw-1" source="wd3FYFt02pDFn2Ap9oAw-3" target="wd3FYFt02pDFn2Ap9oAw-5" edge="1">
          <mxGeometry relative="1" as="geometry" />
        </mxCell>
        <mxCell id="wd3FYFt02pDFn2Ap9oAw-3" value="&lt;font&gt;manylinux-lvl1-base&lt;/font&gt;&lt;div&gt;&lt;font&gt;(ubuntu:18.04)&lt;/font&gt;&lt;/div&gt;" style="rounded=0;whiteSpace=wrap;html=1;fontSize=20;gradientColor=none;fillColor=default;strokeColor=default;fontFamily=Times New Roman;" parent="wd3FYFt02pDFn2Ap9oAw-1" vertex="1">
          <mxGeometry x="500" y="40" width="240" height="80" as="geometry" />
        </mxCell>
        <mxCell id="wd3FYFt02pDFn2Ap9oAw-4" style="edgeStyle=orthogonalEdgeStyle;rounded=0;orthogonalLoop=1;jettySize=auto;html=1;exitX=0.5;exitY=1;exitDx=0;exitDy=0;entryX=0.5;entryY=0;entryDx=0;entryDy=0;fontSize=20;fontColor=default;fontFamily=Times New Roman;" parent="wd3FYFt02pDFn2Ap9oAw-1" source="wd3FYFt02pDFn2Ap9oAw-5" target="wd3FYFt02pDFn2Ap9oAw-6" edge="1">
          <mxGeometry relative="1" as="geometry" />
        </mxCell>
        <mxCell id="wd3FYFt02pDFn2Ap9oAw-5" value="&lt;font&gt;manylinux-lvl2-gnu-gcc-clang&lt;/font&gt;" style="rounded=0;whiteSpace=wrap;html=1;strokeColor=default;fontSize=20;fontColor=default;fontFamily=Times New Roman;" parent="wd3FYFt02pDFn2Ap9oAw-1" vertex="1">
          <mxGeometry x="60" y="160" width="320" height="80" as="geometry" />
        </mxCell>
        <mxCell id="wd3FYFt02pDFn2Ap9oAw-6" value="&lt;font&gt;manylinux-&lt;span&gt;lvl3&lt;/span&gt;-&lt;span&gt;cp3xx-manylinux_2_17_x86_64&lt;/span&gt;&lt;br&gt;(One for each Python version)&lt;/font&gt;" style="rounded=0;whiteSpace=wrap;html=1;strokeColor=default;fontSize=20;fontColor=default;fontFamily=Times New Roman;" parent="wd3FYFt02pDFn2Ap9oAw-1" vertex="1">
          <mxGeometry x="40" y="280" width="360" height="80" as="geometry" />
        </mxCell>
        <mxCell id="wd3FYFt02pDFn2Ap9oAw-7" value="&lt;font&gt;manylinux-lvl2-gcc-aarch64-linux-gnu&lt;/font&gt;" style="rounded=0;whiteSpace=wrap;html=1;strokeColor=default;fontSize=20;fontColor=default;fontFamily=Times New Roman;" parent="wd3FYFt02pDFn2Ap9oAw-1" vertex="1">
          <mxGeometry x="460" y="160" width="320" height="80" as="geometry" />
        </mxCell>
        <mxCell id="wd3FYFt02pDFn2Ap9oAw-8" style="edgeStyle=orthogonalEdgeStyle;rounded=0;orthogonalLoop=1;jettySize=auto;html=1;exitX=0.5;exitY=1;exitDx=0;exitDy=0;entryX=0.5;entryY=0;entryDx=0;entryDy=0;fontSize=20;fontColor=default;fontFamily=Times New Roman;" parent="wd3FYFt02pDFn2Ap9oAw-1" source="wd3FYFt02pDFn2Ap9oAw-3" target="wd3FYFt02pDFn2Ap9oAw-7" edge="1">
          <mxGeometry relative="1" as="geometry">
            <mxPoint x="296" y="150" as="sourcePoint" />
            <mxPoint x="199" y="210" as="targetPoint" />
          </mxGeometry>
        </mxCell>
        <mxCell id="wd3FYFt02pDFn2Ap9oAw-9" value="&lt;font&gt;manylinux-&lt;span&gt;lvl3&lt;/span&gt;-&lt;span&gt;cp3xx-manylinux_2_17_aarch64&lt;/span&gt;&lt;/font&gt;&lt;div&gt;&lt;font&gt;(One for each Python version)&lt;/font&gt;&lt;/div&gt;" style="rounded=0;whiteSpace=wrap;html=1;strokeColor=default;fontSize=20;fontColor=default;fontFamily=Times New Roman;" parent="wd3FYFt02pDFn2Ap9oAw-1" vertex="1">
          <mxGeometry x="440" y="280" width="360" height="80" as="geometry" />
        </mxCell>
        <mxCell id="wd3FYFt02pDFn2Ap9oAw-10" style="edgeStyle=orthogonalEdgeStyle;rounded=0;orthogonalLoop=1;jettySize=auto;html=1;exitX=0.5;exitY=1;exitDx=0;exitDy=0;entryX=0.5;entryY=0;entryDx=0;entryDy=0;fontSize=20;fontColor=default;fontFamily=Times New Roman;" parent="wd3FYFt02pDFn2Ap9oAw-1" source="wd3FYFt02pDFn2Ap9oAw-7" target="wd3FYFt02pDFn2Ap9oAw-9" edge="1">
          <mxGeometry relative="1" as="geometry">
            <mxPoint x="369.45000000000005" y="220" as="sourcePoint" />
          </mxGeometry>
        </mxCell>
        <mxCell id="wd3FYFt02pDFn2Ap9oAw-11" value="&lt;font&gt;manylinux-lvl2-gcc-arm-linux-gnueabihf&lt;/font&gt;" style="rounded=0;whiteSpace=wrap;html=1;strokeColor=default;fontSize=20;fontColor=default;fontFamily=Times New Roman;" parent="wd3FYFt02pDFn2Ap9oAw-1" vertex="1">
          <mxGeometry x="860" y="160" width="320" height="80" as="geometry" />
        </mxCell>
        <mxCell id="wd3FYFt02pDFn2Ap9oAw-12" style="edgeStyle=orthogonalEdgeStyle;rounded=0;orthogonalLoop=1;jettySize=auto;html=1;exitX=0.5;exitY=1;exitDx=0;exitDy=0;entryX=0.5;entryY=0;entryDx=0;entryDy=0;fontSize=20;fontColor=default;fontFamily=Times New Roman;" parent="wd3FYFt02pDFn2Ap9oAw-1" source="wd3FYFt02pDFn2Ap9oAw-3" target="wd3FYFt02pDFn2Ap9oAw-11" edge="1">
          <mxGeometry relative="1" as="geometry">
            <mxPoint x="900" y="120" as="sourcePoint" />
            <mxPoint x="639" y="210" as="targetPoint" />
          </mxGeometry>
        </mxCell>
        <mxCell id="wd3FYFt02pDFn2Ap9oAw-13" value="&lt;font&gt;manylinux-&lt;span&gt;lvl3&lt;/span&gt;-&lt;span&gt;cp3xx-manylinux_2_17&lt;/span&gt;&lt;/font&gt;_armv7l&lt;div&gt;&lt;font&gt;(One for each Python version)&lt;/font&gt;&lt;/div&gt;" style="rounded=0;whiteSpace=wrap;html=1;strokeColor=default;fontSize=20;fontColor=default;fontFamily=Times New Roman;" parent="wd3FYFt02pDFn2Ap9oAw-1" vertex="1">
          <mxGeometry x="840" y="280" width="360" height="80" as="geometry" />
        </mxCell>
        <mxCell id="wd3FYFt02pDFn2Ap9oAw-14" style="edgeStyle=orthogonalEdgeStyle;rounded=0;orthogonalLoop=1;jettySize=auto;html=1;exitX=0.5;exitY=1;exitDx=0;exitDy=0;entryX=0.5;entryY=0;entryDx=0;entryDy=0;fontSize=20;fontColor=default;fontFamily=Times New Roman;" parent="wd3FYFt02pDFn2Ap9oAw-1" source="wd3FYFt02pDFn2Ap9oAw-11" target="wd3FYFt02pDFn2Ap9oAw-13" edge="1">
          <mxGeometry relative="1" as="geometry">
            <mxPoint x="809.45" y="220" as="sourcePoint" />
          </mxGeometry>
        </mxCell>
      </root>
    </mxGraphModel>
  </diagram>
  <diagram name="manylinux-part2" id="QDSYBTf6AXZRdPi9jbgv">
    <mxGraphModel dx="1896" dy="902" grid="1" gridSize="10" guides="1" tooltips="1" connect="1" arrows="1" fold="1" page="1" pageScale="1" pageWidth="827" pageHeight="1169" math="0" shadow="0">
      <root>
        <mxCell id="QHAEiVIK2DXOMmamvT1E-0" />
        <mxCell id="QHAEiVIK2DXOMmamvT1E-1" parent="QHAEiVIK2DXOMmamvT1E-0" />
        <mxCell id="QHAEiVIK2DXOMmamvT1E-3" value="&lt;font&gt;manylinux-lvl1-base&lt;/font&gt;&lt;div&gt;&lt;font&gt;(ubuntu:18.04)&lt;/font&gt;&lt;/div&gt;" style="rounded=0;whiteSpace=wrap;html=1;fontSize=20;gradientColor=none;fillColor=default;strokeColor=default;fontFamily=Times New Roman;" parent="QHAEiVIK2DXOMmamvT1E-1" vertex="1">
          <mxGeometry x="299" y="40" width="240" height="80" as="geometry" />
        </mxCell>
        <mxCell id="QHAEiVIK2DXOMmamvT1E-15" value="&lt;font&gt;manylinux-lvl2-gcc-powerpc64le-linux-gnu&lt;/font&gt;" style="rounded=0;whiteSpace=wrap;html=1;strokeColor=default;fontSize=20;fontColor=default;fontFamily=Times New Roman;" parent="QHAEiVIK2DXOMmamvT1E-1" vertex="1">
          <mxGeometry x="60.5" y="160" width="319" height="80" as="geometry" />
        </mxCell>
        <mxCell id="QHAEiVIK2DXOMmamvT1E-16" value="&lt;font&gt;manylinux-&lt;span&gt;lvl3&lt;/span&gt;-&lt;span&gt;cp3xx-manylinux_2_17&lt;/span&gt;&lt;/font&gt;_ppc64le&lt;div&gt;&lt;font&gt;(One for each Python version)&lt;/font&gt;&lt;/div&gt;" style="rounded=0;whiteSpace=wrap;html=1;strokeColor=default;fontSize=20;fontColor=default;fontFamily=Times New Roman;" parent="QHAEiVIK2DXOMmamvT1E-1" vertex="1">
          <mxGeometry x="40" y="280" width="360" height="80" as="geometry" />
        </mxCell>
        <mxCell id="QHAEiVIK2DXOMmamvT1E-17" style="edgeStyle=orthogonalEdgeStyle;rounded=0;orthogonalLoop=1;jettySize=auto;html=1;exitX=0.5;exitY=1;exitDx=0;exitDy=0;entryX=0.5;entryY=0;entryDx=0;entryDy=0;fontSize=20;fontColor=default;fontFamily=Times New Roman;" parent="QHAEiVIK2DXOMmamvT1E-1" source="QHAEiVIK2DXOMmamvT1E-15" target="QHAEiVIK2DXOMmamvT1E-16" edge="1">
          <mxGeometry relative="1" as="geometry">
            <mxPoint x="48.450000000000045" y="220" as="sourcePoint" />
          </mxGeometry>
        </mxCell>
        <mxCell id="QHAEiVIK2DXOMmamvT1E-18" style="edgeStyle=orthogonalEdgeStyle;rounded=0;orthogonalLoop=1;jettySize=auto;html=1;exitX=0.5;exitY=1;exitDx=0;exitDy=0;entryX=0.5;entryY=0;entryDx=0;entryDy=0;fontSize=20;fontColor=default;fontFamily=Times New Roman;" parent="QHAEiVIK2DXOMmamvT1E-1" source="QHAEiVIK2DXOMmamvT1E-3" target="QHAEiVIK2DXOMmamvT1E-15" edge="1">
          <mxGeometry relative="1" as="geometry">
            <mxPoint x="29" y="110" as="sourcePoint" />
            <mxPoint x="249" y="150" as="targetPoint" />
          </mxGeometry>
        </mxCell>
        <mxCell id="QHAEiVIK2DXOMmamvT1E-19" value="&lt;font&gt;manylinux-lvl2-gcc-s390x-linux-gnu&lt;/font&gt;" style="rounded=0;whiteSpace=wrap;html=1;strokeColor=default;fontSize=20;fontColor=default;fontFamily=Times New Roman;" parent="QHAEiVIK2DXOMmamvT1E-1" vertex="1">
          <mxGeometry x="459.5" y="160" width="319" height="80" as="geometry" />
        </mxCell>
        <mxCell id="QHAEiVIK2DXOMmamvT1E-20" value="&lt;font&gt;manylinux-&lt;span&gt;lvl3&lt;/span&gt;-&lt;span&gt;cp3xx-manylinux_2_17&lt;/span&gt;&lt;/font&gt;_s390x&lt;div&gt;&lt;font&gt;(One for each Python version)&lt;/font&gt;&lt;/div&gt;" style="rounded=0;whiteSpace=wrap;html=1;strokeColor=default;fontSize=20;fontColor=default;fontFamily=Times New Roman;" parent="QHAEiVIK2DXOMmamvT1E-1" vertex="1">
          <mxGeometry x="439" y="280" width="360" height="80" as="geometry" />
        </mxCell>
        <mxCell id="QHAEiVIK2DXOMmamvT1E-21" style="edgeStyle=orthogonalEdgeStyle;rounded=0;orthogonalLoop=1;jettySize=auto;html=1;exitX=0.5;exitY=1;exitDx=0;exitDy=0;entryX=0.5;entryY=0;entryDx=0;entryDy=0;fontSize=20;fontColor=default;fontFamily=Times New Roman;" parent="QHAEiVIK2DXOMmamvT1E-1" source="QHAEiVIK2DXOMmamvT1E-19" target="QHAEiVIK2DXOMmamvT1E-20" edge="1">
          <mxGeometry relative="1" as="geometry">
            <mxPoint x="447.45000000000005" y="220" as="sourcePoint" />
          </mxGeometry>
        </mxCell>
        <mxCell id="QHAEiVIK2DXOMmamvT1E-22" style="edgeStyle=orthogonalEdgeStyle;rounded=0;orthogonalLoop=1;jettySize=auto;html=1;exitX=0.5;exitY=1;exitDx=0;exitDy=0;entryX=0.5;entryY=0;entryDx=0;entryDy=0;fontSize=20;fontColor=default;fontFamily=Times New Roman;" parent="QHAEiVIK2DXOMmamvT1E-1" source="QHAEiVIK2DXOMmamvT1E-3" target="QHAEiVIK2DXOMmamvT1E-19" edge="1">
          <mxGeometry relative="1" as="geometry">
            <mxPoint x="129" y="80" as="sourcePoint" />
            <mxPoint x="730" y="120" as="targetPoint" />
          </mxGeometry>
        </mxCell>
      </root>
    </mxGraphModel>
  </diagram>
  <diagram id="fIxw64pfKd3oiVUUdo63" name="musllinux">
    <mxGraphModel dx="1896" dy="902" grid="1" gridSize="10" guides="1" tooltips="1" connect="1" arrows="1" fold="1" page="1" pageScale="1" pageWidth="827" pageHeight="1169" math="0" shadow="0">
      <root>
        <mxCell id="0" />
        <mxCell id="1" parent="0" />
        <mxCell id="HMx-rr-UA2jdJH1NBoV4-1" style="edgeStyle=orthogonalEdgeStyle;rounded=0;orthogonalLoop=1;jettySize=auto;html=1;exitX=0.5;exitY=1;exitDx=0;exitDy=0;entryX=0.5;entryY=0;entryDx=0;entryDy=0;fontSize=20;fontColor=default;fontFamily=Times New Roman;" parent="1" source="HMx-rr-UA2jdJH1NBoV4-2" target="HMx-rr-UA2jdJH1NBoV4-4" edge="1">
          <mxGeometry relative="1" as="geometry" />
        </mxCell>
        <mxCell id="HMx-rr-UA2jdJH1NBoV4-2" value="&lt;font&gt;musllinux-lvl1-base&lt;br&gt;(alpine:3.14)&lt;/font&gt;" style="rounded=0;whiteSpace=wrap;html=1;fontSize=20;fontColor=default;fontFamily=Times New Roman;" parent="1" vertex="1">
          <mxGeometry x="300" y="40" width="240" height="80" as="geometry" />
        </mxCell>
        <mxCell id="HMx-rr-UA2jdJH1NBoV4-3" style="edgeStyle=orthogonalEdgeStyle;rounded=0;orthogonalLoop=1;jettySize=auto;html=1;exitX=0.5;exitY=1;exitDx=0;exitDy=0;fontSize=20;fontColor=default;fontFamily=Times New Roman;" parent="1" source="HMx-rr-UA2jdJH1NBoV4-4" target="HMx-rr-UA2jdJH1NBoV4-5" edge="1">
          <mxGeometry relative="1" as="geometry" />
        </mxCell>
        <mxCell id="HMx-rr-UA2jdJH1NBoV4-4" value="&lt;font&gt;&lt;span&gt;musllinux-lvl2-&lt;/span&gt;musl-gcc-clang&lt;/font&gt;" style="rounded=0;whiteSpace=wrap;html=1;fontSize=20;fontColor=default;fontFamily=Times New Roman;" parent="1" vertex="1">
          <mxGeometry x="60" y="160" width="320" height="80" as="geometry" />
        </mxCell>
        <mxCell id="HMx-rr-UA2jdJH1NBoV4-5" value="&lt;div&gt;&lt;font&gt;&lt;span style=&quot;background-color: transparent;&quot;&gt;musllinux&lt;/span&gt;&lt;span&gt;-&lt;/span&gt;&lt;span&gt;lvl3&lt;/span&gt;&lt;span&gt;-&lt;/span&gt;&lt;span&gt;cp3xx-musllinux_1_2_x86_64&lt;/span&gt;&lt;br&gt;(One for each Python version)&lt;/font&gt;&lt;/div&gt;" style="rounded=0;whiteSpace=wrap;html=1;fontSize=20;fontColor=default;fontFamily=Times New Roman;" parent="1" vertex="1">
          <mxGeometry x="40" y="280" width="360" height="80" as="geometry" />
        </mxCell>
        <mxCell id="HMx-rr-UA2jdJH1NBoV4-6" value="&lt;font&gt;musllinux-lvl2-aarch64-linux-musl-cross&lt;/font&gt;" style="rounded=0;whiteSpace=wrap;html=1;strokeColor=default;fontSize=20;fontColor=default;fontFamily=Times New Roman;" parent="1" vertex="1">
          <mxGeometry x="459.26" y="160" width="320.88" height="80" as="geometry" />
        </mxCell>
        <mxCell id="HMx-rr-UA2jdJH1NBoV4-7" style="edgeStyle=orthogonalEdgeStyle;rounded=0;orthogonalLoop=1;jettySize=auto;html=1;exitX=0.5;exitY=1;exitDx=0;exitDy=0;entryX=0.5;entryY=0;entryDx=0;entryDy=0;fontSize=20;fontColor=default;fontFamily=Times New Roman;" parent="1" source="HMx-rr-UA2jdJH1NBoV4-2" target="HMx-rr-UA2jdJH1NBoV4-6" edge="1">
          <mxGeometry relative="1" as="geometry">
            <mxPoint x="286.8299999999999" y="180" as="sourcePoint" />
            <mxPoint x="221.82999999999993" y="290" as="targetPoint" />
          </mxGeometry>
        </mxCell>
        <mxCell id="HMx-rr-UA2jdJH1NBoV4-8" value="&lt;font&gt;musllinux-&lt;span&gt;lvl3&lt;/span&gt;-&lt;span&gt;cp3xx-musllinux_1_2_aarch64&lt;/span&gt;&lt;/font&gt;&lt;div&gt;&lt;font&gt;(One for each Python version)&lt;/font&gt;&lt;/div&gt;" style="rounded=0;whiteSpace=wrap;html=1;strokeColor=default;fontSize=20;fontColor=default;fontFamily=Times New Roman;" parent="1" vertex="1">
          <mxGeometry x="440" y="280" width="359.41" height="80" as="geometry" />
        </mxCell>
        <mxCell id="HMx-rr-UA2jdJH1NBoV4-9" style="edgeStyle=orthogonalEdgeStyle;rounded=0;orthogonalLoop=1;jettySize=auto;html=1;exitX=0.5;exitY=1;exitDx=0;exitDy=0;entryX=0.5;entryY=0;entryDx=0;entryDy=0;fontSize=20;fontColor=default;fontFamily=Times New Roman;" parent="1" source="HMx-rr-UA2jdJH1NBoV4-6" target="HMx-rr-UA2jdJH1NBoV4-8" edge="1">
          <mxGeometry relative="1" as="geometry">
            <mxPoint x="382.28" y="220" as="sourcePoint" />
          </mxGeometry>
        </mxCell>
      </root>
    </mxGraphModel>
  </diagram>
  <diagram id="FyONAU5FnYfzzzWxdN5F" name="win-macosx-pookie">
    <mxGraphModel dx="1896" dy="902" grid="1" gridSize="10" guides="1" tooltips="1" connect="1" arrows="1" fold="1" page="1" pageScale="1" pageWidth="827" pageHeight="1169" math="0" shadow="0">
      <root>
        <mxCell id="0" />
        <mxCell id="1" parent="0" />
        <mxCell id="dKR7wRJE7CAjjfdQ5kSB-1" style="edgeStyle=orthogonalEdgeStyle;rounded=0;orthogonalLoop=1;jettySize=auto;html=1;exitX=0.5;exitY=1;exitDx=0;exitDy=0;entryX=0.5;entryY=0;entryDx=0;entryDy=0;fontSize=20;fontColor=default;fontFamily=Times New Roman;" parent="1" source="dKR7wRJE7CAjjfdQ5kSB-4" target="dKR7wRJE7CAjjfdQ5kSB-5" edge="1">
          <mxGeometry relative="1" as="geometry" />
        </mxCell>
        <mxCell id="dKR7wRJE7CAjjfdQ5kSB-2" style="edgeStyle=orthogonalEdgeStyle;rounded=0;orthogonalLoop=1;jettySize=auto;html=1;exitX=0.5;exitY=1;exitDx=0;exitDy=0;fontSize=20;fontColor=default;fontFamily=Times New Roman;" parent="1" source="dKR7wRJE7CAjjfdQ5kSB-4" target="dKR7wRJE7CAjjfdQ5kSB-7" edge="1">
          <mxGeometry relative="1" as="geometry" />
        </mxCell>
        <mxCell id="dKR7wRJE7CAjjfdQ5kSB-3" style="edgeStyle=orthogonalEdgeStyle;rounded=0;orthogonalLoop=1;jettySize=auto;html=1;exitX=0.5;exitY=1;exitDx=0;exitDy=0;fontSize=20;fontColor=default;fontFamily=Times New Roman;" parent="1" source="dKR7wRJE7CAjjfdQ5kSB-4" target="dKR7wRJE7CAjjfdQ5kSB-10" edge="1">
          <mxGeometry relative="1" as="geometry" />
        </mxCell>
        <mxCell id="dKR7wRJE7CAjjfdQ5kSB-4" value="&lt;div&gt;&lt;font&gt;win-macosx-pookie-lvl1-base&lt;/font&gt;&lt;/div&gt;&lt;font&gt;(ubuntu:24.04)&lt;/font&gt;" style="rounded=0;whiteSpace=wrap;html=1;fontSize=20;fontColor=default;fontFamily=Times New Roman;" parent="1" vertex="1">
          <mxGeometry x="700" y="30" width="240" height="80" as="geometry" />
        </mxCell>
        <mxCell id="dKR7wRJE7CAjjfdQ5kSB-5" value="&lt;font&gt;&lt;span&gt;win-macosx-pookie-lvl2-&lt;/span&gt;pookie&lt;/font&gt;&lt;div&gt;&lt;font&gt;(manage the images)&lt;/font&gt;&lt;/div&gt;" style="rounded=0;whiteSpace=wrap;html=1;strokeColor=default;fontSize=20;fontColor=default;fontFamily=Times New Roman;" parent="1" vertex="1">
          <mxGeometry x="1260" y="160" width="320" height="80" as="geometry" />
        </mxCell>
        <mxCell id="dKR7wRJE7CAjjfdQ5kSB-6" style="edgeStyle=orthogonalEdgeStyle;rounded=0;orthogonalLoop=1;jettySize=auto;html=1;exitX=0.5;exitY=1;exitDx=0;exitDy=0;entryX=0.5;entryY=0;entryDx=0;entryDy=0;fontSize=20;fontColor=default;fontFamily=Times New Roman;" parent="1" source="dKR7wRJE7CAjjfdQ5kSB-7" target="dKR7wRJE7CAjjfdQ5kSB-8" edge="1">
          <mxGeometry relative="1" as="geometry" />
        </mxCell>
        <mxCell id="dKR7wRJE7CAjjfdQ5kSB-7" value="win&lt;span&gt;-macosx-pookie-lvl2-msvc-mingw64&lt;/span&gt;" style="rounded=0;whiteSpace=wrap;html=1;fontSize=20;fontColor=default;fontFamily=Times New Roman;" parent="1" vertex="1">
          <mxGeometry x="60" y="160" width="320" height="80" as="geometry" />
        </mxCell>
        <mxCell id="dKR7wRJE7CAjjfdQ5kSB-8" value="&lt;font&gt;&lt;span style=&quot;background-color: transparent;&quot;&gt;win-macosx-pookie&lt;/span&gt;&lt;span&gt;-&lt;/span&gt;&lt;span&gt;lvl3&lt;/span&gt;&lt;span&gt;-&lt;/span&gt;&lt;span&gt;cp3xx-win_amd64&lt;/span&gt;&lt;br&gt;&lt;span&gt;(One for each Python version)&lt;/span&gt;&lt;/font&gt;" style="rounded=0;whiteSpace=wrap;html=1;fontSize=20;fontColor=default;fontFamily=Times New Roman;" parent="1" vertex="1">
          <mxGeometry x="40" y="280" width="360" height="80" as="geometry" />
        </mxCell>
        <mxCell id="dKR7wRJE7CAjjfdQ5kSB-9" style="edgeStyle=orthogonalEdgeStyle;rounded=0;orthogonalLoop=1;jettySize=auto;html=1;exitX=0.5;exitY=1;exitDx=0;exitDy=0;entryX=0.5;entryY=0;entryDx=0;entryDy=0;fontSize=20;fontColor=default;fontFamily=Times New Roman;" parent="1" source="dKR7wRJE7CAjjfdQ5kSB-10" target="dKR7wRJE7CAjjfdQ5kSB-11" edge="1">
          <mxGeometry relative="1" as="geometry" />
        </mxCell>
        <mxCell id="dKR7wRJE7CAjjfdQ5kSB-10" value="&lt;font&gt;&lt;span&gt;win-macosx-pookie-lvl2-&lt;/span&gt;osxcross&lt;/font&gt;" style="rounded=0;whiteSpace=wrap;html=1;fontSize=20;fontColor=default;fontFamily=Times New Roman;" parent="1" vertex="1">
          <mxGeometry x="660" y="160" width="320" height="80" as="geometry" />
        </mxCell>
        <mxCell id="dKR7wRJE7CAjjfdQ5kSB-11" value="&lt;span&gt;&lt;span&gt;win-macosx-pookie&lt;/span&gt;-&lt;/span&gt;&lt;span&gt;lvl3&lt;/span&gt;&lt;span&gt;-&lt;/span&gt;&lt;span&gt;cp3xx-macosx_11_0_x86_64&lt;/span&gt;&lt;br&gt;&lt;span&gt;(One for each Python version)&lt;/span&gt;" style="rounded=0;whiteSpace=wrap;html=1;fontSize=20;fontColor=default;fontFamily=Times New Roman;" parent="1" vertex="1">
          <mxGeometry x="440" y="280" width="360" height="80" as="geometry" />
        </mxCell>
        <mxCell id="EQHoo_z2JnXPYkgAfu5O-1" value="&lt;span&gt;&lt;span&gt;win-macosx-pookie&lt;/span&gt;-&lt;/span&gt;&lt;span&gt;lvl3&lt;/span&gt;&lt;span&gt;-&lt;/span&gt;&lt;span&gt;cp3xx-macosx_11_0_arm64&lt;/span&gt;&lt;br&gt;&lt;span&gt;(One for each Python version)&lt;/span&gt;" style="rounded=0;whiteSpace=wrap;html=1;fontSize=20;fontColor=default;fontFamily=Times New Roman;" parent="1" vertex="1">
          <mxGeometry x="840" y="280" width="360" height="80" as="geometry" />
        </mxCell>
        <mxCell id="EQHoo_z2JnXPYkgAfu5O-2" style="edgeStyle=orthogonalEdgeStyle;rounded=0;orthogonalLoop=1;jettySize=auto;html=1;entryX=0.5;entryY=0;entryDx=0;entryDy=0;fontSize=20;fontColor=default;exitX=0.5;exitY=1;exitDx=0;exitDy=0;fontFamily=Times New Roman;" parent="1" source="dKR7wRJE7CAjjfdQ5kSB-10" target="EQHoo_z2JnXPYkgAfu5O-1" edge="1">
          <mxGeometry relative="1" as="geometry">
            <mxPoint x="1090" y="250" as="sourcePoint" />
            <mxPoint x="510" y="288" as="targetPoint" />
          </mxGeometry>
        </mxCell>
      </root>
    </mxGraphModel>
  </diagram>
</mxfile>
